<?xml version="1.0" standalone="no"?><svg xmlns="http://www.w3.org/2000/svg" viewBox="0 0 1440 320"><path fill="#0099ff" fill-opacity="0.5" d="M0,160L24,181.3C48,203,96,245,144,234.7C192,224,240,160,288,112C336,64,384,32,432,48C480,64,528,128,576,144C624,160,672,128,720,133.3C768,139,816,181,864,213.3C912,245,960,267,1008,272C1056,277,1104,267,1152,245.3C1200,224,1248,192,1296,170.7C1344,149,1392,139,1416,133.3L1440,128L1440,320L1416,320C1392,320,1344,320,1296,320C1248,320,1200,320,1152,320C1104,320,1056,320,1008,320C960,320,912,320,864,320C816,320,768,320,720,320C672,320,624,320,576,320C528,320,480,320,432,320C384,320,336,320,288,320C240,320,192,320,144,320C96,320,48,320,24,320L0,320Z"></path></svg>